<svg
   xmlns="http://www.w3.org/2000/svg"
   height="512"
   width="512"
   viewBox="0 0 512 512"
   >
    <path
       d="m 472,140 v 141.28878 c 0,11.046 -8.954,20 -20,20 -11.046,0 -20,-8.954 -20,-20 V 160 h -40 v 60 c 0,11.046 -8.954,20 -20,20 -11.046,0 -20,-8.954 -20,-20 V 160 H 160 v 60 c 0,11.046 -8.954,20 -20,20 -11.046,0 -20,-8.954 -20,-20 V 160 H 80 v 312 h 212 c 11.046,0 20,8.954 20,20 0,11.046 -8.954,20 -20,20 H 60 C 48.954,512 40,503.046 40,492 V 140 c 0,-11.046 8.954,-20 20,-20 h 60.946 C 128.891,52.523 186.423,0 256,0 325.577,0 383.109,52.523 391.054,120 H 452 c 11.046,0 20,8.954 20,20 z M 350.659,120 C 343.019,74.655 303.483,40 256,40 c -47.483,0 -87.019,34.655 -94.659,80 z"
       id="path3762"
       />
</svg>
